<svg height="512" viewBox="0 0 61 60" width="512" xmlns="http://www.w3.org/2000/svg"><g id="Page-1" fill="none" fill-rule="evenodd"><g id="009---Overpowered" fill-rule="nonzero"><g id="Icons" transform="translate(2 1)"><path id="Shape" d="m57 0-1.81 16.31-9.97-4.53-4.53-9.97z" fill="#e8edfc"/><path id="Shape" d="m53.963.337-1.629 14.675 2.856 1.298 1.81-16.31z" fill="#cad9fc"/><path id="Shape" d="m28.34 23.58c-3.1201175 3.1283378-3.1201175 8.1916622 0 11.32l1.38 1.38-8.06 6.31-7.25-7.25 26.28-33.53 4.53 9.97 9.97 4.53-19.13 14.99z" fill="#e8edfc"/><path id="Shape" d="m45.22 11.78-4.53-9.97-1.899 2.423 3.429 7.547 9.97 4.53-17.448 13.672 1.318 1.318 19.13-14.99z" fill="#cad9fc"/><rect id="Rectangle-path" fill="#a4c2f7" height="4" rx="1" transform="matrix(.707 -.707 .707 .707 -19.404 45.577)" width="12" x="39.314" y="44.211"/><path id="Shape" d="m52.89 49.545-4.041-4.045-4.242 4.243 4.041 4.042c.2699087.2591653.455325.593751.532.96.2417827 1.2897537 1.1034655 2.3775907 2.303616 2.9082151 1.2001504.5306244 2.5846776.4359076 3.701384-.2532151 1.0436358-.6421193 1.7359943-1.7265675 1.879268-2.9435167.1432737-1.2169493-.2782967-2.4325424-1.144268-3.2994833-.5671054-.5657219-1.2935412-.9446408-2.082-1.086-.3617428-.0759109-.692151-.2592386-.948-.526z" fill="#a4c2f7"/><path id="Shape" d="m55.92 51.161c-.5671054-.5657219-1.2935412-.9446408-2.082-1.086-.3622186-.0770193-.692681-.2617715-.948-.53l-4.041-4.045-1.5 1.5 2.541 2.541c.255319.2682285.5857814.4529807.948.53.7884588.1413592 1.5148946.5202781 2.082 1.086.951869.9484938 1.3638826 2.3115585 1.0967892 3.6285081-.2670934 1.3169495-1.1776003 2.411791-2.4237892 2.9144919 1.1761893.4816363 2.512.3700708 3.592-.3 1.0422137-.6422862 1.7335277-1.7258752 1.8767605-2.941698.1432329-1.2158229-.2773402-2.4304003-1.1417605-3.297302z" fill="#7facfa"/><path id="Shape" d="m46.73 41.97-5.66 5.66-11.35-11.35-1.38-1.38c-3.1201175-3.1283378-3.1201175-8.1916622 0-11.32l7.72 7.72z" fill="#e8edfc"/><path id="Shape" d="m36.06 31.3-7.72-7.72c-.5045798.5095809-.9387599 1.0843398-1.291 1.709l6.011 6.011 10.67 10.67-4.16 4.16 1.5 1.5 5.66-5.66z" fill="#cad9fc"/><path id="Shape" d="m23.47 46.22c-1.4998227 1.5032045-1.4998227 3.9367955 0 5.44l-18.13-18.13c1.50320446 1.4998227 3.93679554 1.4998227 5.44 0 .3116059-.3070868.5626408-.6700697.74-1.07l13.02 13.02c-.3999303.1773592-.7629132.4283941-1.07.74z" fill="#a4c2f7"/><path id="Shape" d="m11.52 32.46c-.1773592.3999303-.4283941.7629132-.74 1.07-1.41515542 1.4517581-3.70661924 1.5771341-5.27171681.2884386s-1.88180294-3.5616283-.72860895-5.2290845c1.153194-1.6674561 3.39164859-2.1732689 5.14976439-1.1636673 1.75811577 1.0096016 2.44948707 3.1978729 1.59056137 5.0343132z" fill="#e8edfc"/><path id="Shape" d="m28.91 51.66c-.9673515.9933874-2.3944357 1.3893454-3.7353386 1.0364049s-2.3881258-1.4001634-2.7410663-2.7410663.0430175-2.7679871 1.0364049-3.7353386c.3070868-.3116059.6700697-.5626408 1.07-.74 1.6881045-.81191 3.7157052-.2866034 4.7972135 1.2428523 1.0815083 1.5294556.9009413 3.6162012-.4272135 4.9371477z" fill="#e8edfc"/><path id="Rectangle-path" d="m5.124 40.341h7.69v15.38h-7.69z" fill="#a4c2f7" transform="matrix(.707 .707 -.707 .707 36.59 7.726)"/><path id="Shape" d="m8.969 53.469-3.625-7.25 3.625-3.625 3.625 7.25z" fill="#7facfa"/></g><g id="Icons_copy_2" fill="#fff" transform="translate(2 1)"><path id="Shape" d="m6.06 45.5-5.247 5.25 5.437 5.438 1.5-1.5-3.937-3.938 5.247-5.25.294-.294 5.332-5.333-6.346-6.343c-.90883847-.9020094-1.30708652-2.1983584-1.06141453-3.455042.24567199-1.2566835 1.10279577-2.307617 2.28441453-2.800958-1.69413118-.7214499-3.66192584-.1401957-4.69214478 1.3859823s-.8334687 3.5685691.46914478 4.8700177l6.346 6.346-5.332 5.333z"/><path id="Shape" d="m17.41 35.34 26.28-33.53 13.273-1.473.037-.337-16.31 1.81-24.966 31.854z"/></g><g id="Icons_copy"><path id="Rectangle-path" d="m14.878 32.192h8v2h-8z" fill="#fff" transform="matrix(.617 -.787 .787 .617 -18.892 27.574)"/><g fill="#428dff"><path id="Shape" d="m19.665 33.809c.2506326-.318091.2846753-.7559396.0862206-1.1089471-.1984548-.3530075-.5902224-.5514729-.9922368-.5026568-.4020144.048816-.7348983.3352748-.8431011.7255193-.1082027.3902444.0296402.8072213.3491173 1.0560846.4339863.3380627 1.0595339.2621033 1.4-.17z"/><path id="Shape" d="m32.445 7.832c.297245.19828242.6776931.22292462.9980332.06464413.3203401-.1582805.5319049-.47543711.555-.83200002s-.1457882-.69836171-.4430332-.89664411l-3-2c-.4595009-.30651802-1.080482-.18250089-1.387.27700001-.306518.45950091-.1825009 1.08048195.277 1.38699999z"/><path id="Shape" d="m27 12h4c.5522847 0 1-.4477153 1-1s-.4477153-1-1-1h-4c-.5522847 0-1 .4477153-1 1s.4477153 1 1 1z"/><path id="Shape" d="m35.168 4.555c.1982824.29724497.5400812.46612825.8966441.44303314.3565629-.02309512.6737195-.23465992.832-.555.1582805-.32034009.1336383-.70078817-.0646441-.99803314l-2-3c-.306518-.45950088-.9274991-.58351798-1.387-.27699996-.4595009.30651803-.583518.92749905-.277 1.38699996z"/><path id="Shape" d="m56.019 50.091c-.1625098-.0409414-.3093136-.1289541-.422-.253l-3.333-3.338.707-.707c.7807639-.7809997.7807639-2.0470003 0-2.828l-1.414-1.415c-.375096-.375248-.8839266-.5860729-1.4145-.5860729s-1.039404.2108249-1.4145.5860729l-9.163-9.163 18.243-14.287c.2115465-.1658275.3474276-.4098368.377-.677l1.809-16.313c.0318964-.30038799-.0737025-.59909659-.2873029-.81269706-.2136005-.21360047-.5123091-.3191993-.8126971-.28730294l-16.314 1.806c-.2670064.02981734-.5105359.16655462-.675.379l-21.347 27.232c-.2304821.280314-.291011.6634945-.1581544 1.001203.1328566.3377086.4382442.5769353.7979399.6250698s.7172383-.1023789.9342145-.3932728l20.327-25.934 3.563 7.838-10.729 10.729c-.2599566.2510745-.3642126.6228779-.2726972.9725073.0915155.3496295.3645604.6226744.7141899.7141899.3496294.0915154.7214328-.0127406.9725073-.2726972l10.729-10.729 7.838 3.563-17.135 13.426-7.089-7.09c-.3904999-.3903819-1.0235001-.3903819-1.414 0-3.5091431 3.5166663-3.5091431 9.2103337 0 12.727l.581.582-6.48 5.074-2.292-2.291 4.262-4.262c.3789722-.3923789.3735524-1.0160848-.0121814-1.4018186s-1.0094397-.3911536-1.4018186-.0121814l-4.262 4.262-5.35-5.35c.6786104-2.2643403-.3802364-4.6872819-2.5029354-5.7274252-2.122699-1.0401434-4.68629324-.3922335-6.05990438 1.5315496-1.37361114 1.9237832-1.1541201 4.5588593.51883978 6.2288756l5.636 5.637-9.46 9.461-1.106-1.106c-.39074146-.3904653-1.02403468-.3902415-1.4145.0005s-.39024146 1.0240347.0005 1.4145l1.812 1.812 5.438 5.443 1.812 1.812c.39046532.3907414 1.0237585.3909653 1.4145.0005.3907414-.3904653.3909653-1.0237585.0005-1.4145l-1.106-1.1 9.461-9.461 5.637 5.636c1.6716071 1.6823973 4.3155234 1.9070808 6.247054.5308829 1.9315305-1.3761979 2.5825998-3.9485285 1.5383486-6.0779111-1.0442513-2.1293826-3.4767021-3.189552-5.7474026-2.5049718l-1.637-1.636 6.481-5.074 5.065 5.064 2.825 2.825 2.121 2.12c-.375248.375096-.5860729.8839266-.5860729 1.4145s.2108249 1.039404.5860729 1.4145l1.414 1.415c.7809997.7807639 2.0470003.7807639 2.828 0l.708-.707 3.336 3.343c.1265741.1176284.2156256.26999.256.438.3030315 1.6151291 1.3830379 2.976935 2.8866863 3.6398918 1.5036483.6629568 3.2375009.541778 4.6343137-.3238918 1.3042077-.8025532 2.1687253-2.1585077 2.3459875-3.679569.1772621-1.5210612-.3522808-3.0394774-1.4369875-4.120431-.7101529-.7094471-1.6200981-1.1850051-2.608-1.363zm-3.312-42.8c-.3904999-.39038194-1.0235001-.39038194-1.414 0l-3.761 3.761-3.365-7.4 13.7-1.52-1.52 13.7-7.4-3.365 3.761-3.76c.3901059-.39077588.3896582-1.02377629-.001-1.414zm-45.489 24.522c-.00020877-1.3573549.95849124-2.5258132 2.28974363-2.7907271 1.33125237-.2649138 2.66423997.447508 3.18368597 1.7015367.519446 1.2540288.08066 2.7003577-1.0479894 3.4543888-1.1286493.754031-2.63277952.6057306-3.5924402-.3541984-.53494838-.5322825-.83487448-1.2563538-.833-2.011zm3.482 13.469 2.682 5.364-2.134 2.135-2.687-5.365zm-6.473 6.468 2.843-2.843 2.682 5.364-1.5 1.5zm10.641-2.594-2.682-5.365 1.5-1.5 4.023 4.024zm15.332-1.23c.9620302.9599678 1.1117362 2.4659203.357526 3.5964987-.7542101 1.1305783-2.2021643 1.5707299-3.4579878 1.0511649-1.2558234-.5195649-1.9695621-1.8540618-1.7045425-3.1870303s1.4349457-2.2929568 2.7940043-2.2926333c.7545018-.0021391 1.4785527.2974185 2.011.832zm-5.437-1.414c-.7233987.7254322-1.1951547 1.663687-1.346 2.677l-3.584-3.584-5.433-5.437-3.59-3.585c1.0133313-.151044 1.9517495-.6223556 2.678-1.345.068-.067.117-.148.18-.218l11.313 11.313c-.071.067-.151.11-.219.179zm5.632-20.464 16.918 16.921-4.242 4.242-1.414-1.411.707-.707c.3907414-.3904653.3909653-1.0237585.0005-1.4145-.3904653-.3907414-1.0237585-.3909653-1.4145-.0005l-.708.708-1.414-1.415.707-.707c.2599566-.2510745.3642126-.6228779.2726972-.9725073-.0915155-.3496295-.3645604-.6226744-.7141899-.7141899-.3496294-.0915154-.7214328.0127406-.9725073.2726972l-.707.707-1.414-1.417.707-.707c.3789722-.3923789.3735524-1.0160848-.0121814-1.4018186s-1.0094397-.3911536-1.4018186-.0121814l-.707.707-3.536-3.536c-2.4564573-2.4625626-2.7356896-6.3539383-.656-9.142zm12.676 23.992.707-.707 5.657-5.657.707-.707-.707-.707 2.122 2.122-1.414 1.416-4.243 4.24-1.413 1.413zm13.579 7.518c-.836093.5121786-1.8705864.5804565-2.7667424.1826088s-1.5393656-1.2109405-1.7202576-2.1746088c-.1122907-.5652751-.3941369-1.0829234-.808-1.484l-3.334-3.335 2.829-2.829 3.333 3.334c.3979594.4122805.9121476.6934445 1.474.806.5892727.1052184 1.1322434.3882193 1.556.811.6527039.6511131.969782 1.566179.8598759 2.481543-.1099062.915364-.6345899 1.729361-1.4228759 2.207457z"/><path id="Shape" d="m54.385 54.282c-.2860606.2859742-.3716717.7161158-.2169084 1.0898272.1547633.3737115.5194187.6173863.9239084.6173863s.7691451-.2436748.9239084-.6173863c.1547633-.3737114.0691522-.803853-.2169084-1.0898272-.3904999-.3903819-1.0235001-.3903819-1.414 0z"/><path id="Shape" d="m44 32c-.5522847 0-1 .4477153-1 1s.4477153 1 1 1h3c.5522847 0 1-.4477153 1-1s-.4477153-1-1-1z"/></g></g></g></g></svg>