<svg width="511.99964" height="511" xmlns="http://www.w3.org/2000/svg">

 <g>
  <title>background</title>
  <rect fill="none" id="canvas_background" height="402" width="582" y="-1" x="-1"/>
 </g>
 <g>
  <title>Layer 1</title>
  <g id="svg_1" fill-rule="evenodd">
   <path id="svg_2" fill="#fde800" d="m87.625,161.470822c-17.91406,7.23047 -33.87109,22.82031 -40.78906,51.36718l-36.10938,149.07032c-22.36719,92.24218 78.76953,90.73828 96.375,43.88281l17.31641,-46.20703c4.22656,-11.25391 10.23437,-15.16406 19.95703,-7.85156c22.90234,21.08984 59.92188,18.11328 82.59766,-3.45704l58.05468,0c22.67579,21.57032 59.66797,24.54688 82.59766,3.45704c9.72266,-7.3125 15.70313,-3.40235 19.95313,7.85156l17.32031,46.20703c17.60156,46.85547 118.73828,48.35937 96.375,-43.88281l-36.11328,-149.07032c-6.91407,-28.54687 -22.875,-44.13671 -40.78907,-51.36718c-20.35156,-8.21875 -43.28515,-5.64063 -58.39062,1.01953c-8.90234,3.91406 -15.08203,9.26953 -16.44141,14.6289l0,22.82032c0,12.55468 -10.26172,22.84375 -22.82031,22.84375l-141.44141,0c-12.55859,0 -22.84765,-10.28907 -22.84765,-22.84375l0,-22.82032c-1.33203,-5.35937 -7.51172,-10.71484 -16.41016,-14.6289c-15.10937,-6.66016 -38.01172,-9.23828 -58.39453,-1.01953zm0,0"/>
   <path id="svg_3" fill="#e6e6e6" d="m162.42969,177.119252l0,22.82032c0,12.55468 10.28906,22.84375 22.84765,22.84375l141.44532,0c12.55859,0 22.8164,-10.28907 22.8164,-22.84375l0,-22.82032l-187.10937,0zm0,0"/>
   <path id="svg_4" fill="#b3b3b3" d="m108.43359,132.728632c-11.45312,0 -20.80859,9.38281 -20.80859,20.80469l0,7.9375c20.38281,-8.21875 43.28516,-5.64063 58.39453,1.01953l0,-8.95703c0,-11.42188 -9.35547,-20.80469 -20.80859,-20.80469l-16.77735,0zm0,0"/>
   <path id="svg_5" fill="#b3b3b3" d="m386.78516,132.728632c-11.44922,0 -20.80469,9.38281 -20.80469,20.80469l0,8.95703c15.10937,-6.66016 38.03906,-9.23828 58.39062,-1.01953l0,-7.9375c0,-11.42188 -9.35156,-20.80469 -20.77734,-20.80469l-16.80859,0zm0,0"/>
   <path id="svg_6" fill="#e6e6e6" d="m68.17969,248.525502c0,8.53125 6.97265,15.50391 15.50781,15.50391l9.77734,0l0,9.78125c0,8.53125 6.97266,15.50391 15.50391,15.50391s15.50781,-6.97266 15.50781,-15.50391l0,-9.78125l9.77735,0c8.53125,0 15.5039,-6.97266 15.5039,-15.50391c0,-8.53515 -6.97265,-15.50781 -15.5039,-15.50781l-9.77735,0l0,-9.78125c0,-8.53125 -6.97656,-15.5039 -15.50781,-15.5039s-15.50391,6.97265 -15.50391,15.5039l0,9.78125l-9.77734,0c-8.53516,0 -15.50781,6.97266 -15.50781,15.50781zm0,0"/>
   <path id="svg_7" fill="#e6e6e6" d="m401.38281,263.888792c-6.66015,0 -12.01562,5.38671 -12.01562,12.01953c0,6.63281 5.35547,12.01953 12.01562,12.01953c6.63672,0 11.99219,-5.38672 11.99219,-12.01953c0,-6.63282 -5.35547,-12.01953 -11.99219,-12.01953zm0,0"/>
   <path id="svg_8" fill="#e6e6e6" d="m358.49609,245.064572c0,6.63281 5.38672,12.01953 12.01954,12.01953c6.66015,0 12.01953,-5.38672 12.01953,-12.01953c0,-6.63282 -5.35547,-12.01563 -12.01953,-12.01563c-6.63282,0 -12.01954,5.38281 -12.01954,12.01563zm0,0"/>
   <path id="svg_9" fill="#e6e6e6" d="m389.36719,214.224722c0,6.63282 5.35547,12.01953 12.01953,12.01953c6.63281,0 11.98828,-5.38671 11.98828,-12.01953c0,-6.63281 -5.35547,-12.01953 -11.98828,-12.01953c-6.66406,0 -12.01953,5.38672 -12.01953,12.01953zm0,0"/>
   <path id="svg_10" fill="#e6e6e6" d="m420.20703,245.064572c0,6.63281 5.38672,12.01953 12.01953,12.01953c6.63281,0 12.01953,-5.38672 12.01953,-12.01953c0,-6.63282 -5.38672,-12.01563 -12.01953,-12.01563c-6.63281,0 -12.01953,5.38281 -12.01953,12.01563zm0,0"/>
   <path id="svg_11" fill="#e6e6e6" d="m186.07031,281.263792c-15.47656,0 -28.03515,12.55859 -28.03515,28.03515c0,15.47656 12.55859,28.03516 28.03515,28.03516c15.50391,0 28.03516,-12.5586 28.03516,-28.03516c0,-15.47656 -12.53125,-28.03515 -28.03516,-28.03515zm0,0"/>
   <path id="svg_12" fill="#e6e6e6" d="m331.79688,281.263792c-15.47657,0 -28.03516,12.55859 -28.03516,28.03515c0,15.47656 12.55859,28.03516 28.03516,28.03516s28.03515,-12.5586 28.03515,-28.03516c0,-15.47656 -12.55859,-28.03515 -28.03515,-28.03515zm0,0"/>
   <path id="svg_13" fill="#888b99" d="m106.21875,156.822382l0,-7.9375c0,-6.48828 3.03516,-12.32813 7.73828,-16.15625l-5.52344,0c-11.45312,0 -20.80859,9.38281 -20.80859,20.80469l0,7.9375c6.06641,-2.46485 12.35938,-3.9375 18.59375,-4.64844zm0,0"/>
   <path id="svg_14" fill="#888b99" d="m365.98047,162.494252c5.38672,-2.38281 11.73437,-4.22656 18.625,-5.27343l0,-8.33203c0,-6.49219 3.00391,-12.33204 7.71094,-16.16016l-5.52735,0c-11.45312,0 -20.80859,9.38281 -20.80859,20.80469l0,8.96093zm0,0"/>
   <path id="svg_15" fill="#3f4c63" d="m29.32031,357.291132l36.10938,-149.10547c6.91797,-28.54297 22.875,-44.13281 40.78906,-51.36328c-6.23437,0.71094 -12.52734,2.18359 -18.59375,4.64844c-17.91406,7.23047 -33.875,22.82031 -40.78906,51.36718l-36.10938,149.07032c-16.52734,68.17578 34.41016,85.15625 69.21875,70.4414c-31.49218,2.86328 -64.34375,-18.42187 -50.625,-75.05859zm0,0"/>
   <path id="svg_16" fill="#b3b3b3" d="m162.42969,199.939572c0,12.55468 10.28906,22.84375 22.84765,22.84375l21.45704,0c-12.55469,0 -22.81641,-10.28907 -22.81641,-22.84375l0,-22.82032l-21.48438,0l0,22.82032l-0.0039,0zm0,0"/>
   <path id="svg_17" fill="#b3b3b3" d="m158.03516,309.298942c0,15.47656 12.55859,28.03516 28.03515,28.03516c1.73047,0 3.42969,-0.14063 5.04688,-0.45313c-13.06641,-2.38281 -22.96094,-13.80468 -22.96094,-27.58203c0,-13.74609 9.89453,-25.19922 22.96094,-27.58203c-1.61719,-0.28125 -3.31641,-0.45312 -5.04688,-0.45312c-15.47656,0 -28.03515,12.55859 -28.03515,28.03515zm0,0"/>
   <path id="svg_18" fill="#b3b3b3" d="m303.76172,309.298942c0,15.47656 12.55859,28.03516 28.03516,28.03516c1.73046,0 3.42968,-0.14063 5.04687,-0.45313c-13.06641,-2.38281 -22.98828,-13.80468 -22.98828,-27.58203c0,-13.74609 9.92187,-25.19922 22.98828,-27.58203c-1.61719,-0.28125 -3.31641,-0.45312 -5.04687,-0.45312c-15.47657,0 -28.03516,12.55859 -28.03516,28.03515zm0,0"/>
  </g>
  <path id="svg_19" d="m257.38672,81.12891c-24.32813,0 -45.11328,10.46875 -54.23828,27.3125c-1.97656,3.64062 -0.6211,8.1914 3.01953,10.16406c3.64062,1.97656 8.19141,0.62109 10.16406,-3.01953c6.40625,-11.82031 22.51953,-19.46094 41.05469,-19.46094c18.53906,0 34.65234,7.64063 41.05859,19.46094c1.35938,2.50781 3.9375,3.92969 6.59766,3.92969c1.20703,0 2.43359,-0.29297 3.56641,-0.90625c3.64062,-1.97266 4.99218,-6.52344 3.01953,-10.16797c-9.125,-16.84375 -29.91016,-27.3125 -54.24219,-27.3125zm0,0"/>
  <path id="svg_20" d="m333.90625,90.47266c1.35938,2.5039 3.9375,3.92578 6.59766,3.92578c1.20703,0 2.43359,-0.29297 3.5664,-0.90625c3.64063,-1.97266 4.99219,-6.52344 3.01953,-10.16406c-14.94921,-27.58985 -49.32031,-44.72266 -89.70312,-44.72266c-40.37891,0 -74.75,17.13672 -89.69922,44.72266c-1.97266,3.64062 -0.62109,8.1914 3.01953,10.16406c3.64063,1.97265 8.19141,0.62109 10.16406,-3.01953c12.32422,-22.74219 41.64453,-36.8711 76.51563,-36.8711c34.875,0 64.19531,14.125 76.51953,36.8711zm0,0"/>
  <path id="svg_21" d="m133.11719,73.81641c3.64453,1.97656 8.1914,0.625 10.16797,-3.01563c18.5,-34.11328 62.22265,-55.30469 114.10547,-55.30469c51.8789,0 95.60156,21.19141 114.10546,55.30469c1.35547,2.50391 3.9336,3.92578 6.59766,3.92578c1.20703,0 2.42969,-0.29297 3.56641,-0.91015c3.64062,-1.97266 4.99218,-6.52344 3.01562,-10.16407c-21.125,-38.95312 -69.89844,-63.15234 -127.28516,-63.15234s-106.16015,24.19922 -127.28906,63.15234c-1.97265,3.64063 -0.62109,8.19141 3.01563,10.16407zm0,0"/>
  <path id="svg_22" d="m401.38281,229.21094c10.7461,0 19.48828,-8.75391 19.48828,-19.51563c0,-10.76172 -8.74218,-19.51562 -19.48828,-19.51562c-10.75781,0 -19.51562,8.7539 -19.51562,19.51562c0,10.76172 8.75781,19.51563 19.51562,19.51563zm0,-24.03516c2.48047,0 4.49219,2.02735 4.49219,4.51953c0,2.45313 -2.05469,4.52344 -4.49219,4.52344c-2.49218,0 -4.51953,-2.03125 -4.51953,-4.52344c0,-2.49218 2.03125,-4.51953 4.51953,-4.51953zm0,0"/>
  <path id="svg_23" d="m401.38281,251.85938c-10.75781,0 -19.51562,8.75781 -19.51562,19.51953c0,10.76172 8.75781,19.51562 19.51562,19.51562c10.7461,0 19.48828,-8.7539 19.48828,-19.51562c0,-10.76172 -8.74218,-19.51953 -19.48828,-19.51953zm0,24.03906c-2.49218,0 -4.51953,-2.02735 -4.51953,-4.51953c0,-2.49219 2.02735,-4.52344 4.51953,-4.52344c2.4375,0 4.49219,2.07031 4.49219,4.52344c0.00391,2.49218 -2.01172,4.51953 -4.49219,4.51953zm0,0"/>
  <path id="svg_24" d="m390.03125,240.53516c0,-10.75782 -8.75391,-19.51563 -19.51562,-19.51563s-19.51563,8.75391 -19.51563,19.51563c0,10.76172 8.75391,19.51953 19.51563,19.51953s19.51562,-8.75781 19.51562,-19.51953zm-19.51562,4.52343c-2.49219,0 -4.51954,-2.02734 -4.51954,-4.52343c0,-2.49219 2.02735,-4.51953 4.51954,-4.51953s4.52343,2.02734 4.52343,4.51953c0,2.49609 -2.03125,4.52343 -4.52343,4.52343zm0,0"/>
  <path id="svg_25" d="m432.22656,221.01953c-10.76172,0 -19.51953,8.75391 -19.51953,19.51563c0,10.76172 8.75781,19.51953 19.51953,19.51953c10.76172,0 19.51563,-8.75781 19.51563,-19.51953c0,-10.75782 -8.75391,-19.51563 -19.51563,-19.51563zm0,24.03906c-2.49218,0 -4.52343,-2.02734 -4.52343,-4.52343c0,-2.49219 2.03125,-4.51953 4.52343,-4.51953c2.49219,0 4.51953,2.02734 4.51953,4.51953c0,2.49609 -2.02734,4.52343 -4.51953,4.52343zm0,0"/>
  <path id="svg_26" d="m186.07031,269.23828c-19.58984,0 -35.53125,15.9375 -35.53125,35.53125s15.94141,35.53125 35.53125,35.53125c19.59375,0 35.53125,-15.9414 35.53125,-35.53125c0,-19.59375 -15.9375,-35.53125 -35.53125,-35.53125zm0,56.07031c-11.32422,0 -20.53515,-9.21484 -20.53515,-20.53906s9.21093,-20.53515 20.53515,-20.53515c11.32422,0 20.53907,9.21093 20.53907,20.53515s-9.21485,20.53906 -20.53907,20.53906zm0,0"/>
  <path id="svg_27" d="m508.5625,356.793661l-36.11328,-149.07813c-5.19531,-21.4414 -15.51172,-37.78515 -30.66406,-48.57812c-3.125,-2.22656 -6.44141,-4.19141 -9.91407,-5.88672l0,-3.07031c0,-15.60547 -12.68359,-28.30078 -28.27343,-28.30078l-16.8086,0c-15.60937,0 -28.30469,12.69531 -28.30469,28.30078l0,4.33203c-6.05078,3.29687 -10.82812,7.3164 -13.69531,11.75781l-72.32031,0c-4.14063,0 -7.5,3.35547 -7.5,7.49609s3.35937,7.5 7.5,7.5l69.57422,0l0,15.32032c0,8.46484 -6.875,15.35156 -15.32031,15.35156l-141.44532,0c-8.46093,0 -15.34765,-6.88672 -15.34765,-15.35156l0,-15.32032l67.90234,0c4.14063,0 7.49609,-3.35937 7.49609,-7.5s-3.35546,-7.49609 -7.49609,-7.49609l-70.64844,0c-2.85937,-4.43359 -7.625,-8.44922 -13.66797,-11.74609l0,-4.34375c0,-15.60547 -12.69531,-28.30469 -28.30468,-28.30469l-16.77735,0c-15.60937,0 -28.30468,12.69922 -28.30468,28.30469l0,3.0664c-3.46485,1.69532 -6.76954,3.65625 -9.89063,5.875c-15.16406,10.78907 -25.48828,27.14063 -30.6875,48.59375l-36.11328,149.07422c-5.31641,21.9336 -4.46094,40.48828 2.53906,55.15235c6.26172,13.10937 17.1211,22.36328 31.40625,26.7539c30.61328,9.41406 66.45703,-6.29687 76.70703,-33.62109l17.34766,-46.20703c2.23047,-5.94532 4,-6.69922 4.01953,-6.70703c0.20313,-0.04688 1.5625,0.1289 4.14063,2.01171c24.29296,22.0586 64.07812,21.10547 90.27734,-1.7539l52.24609,0c12.1211,10.58203 27.52344,16.84765 43.70313,17.71875c17.66406,0.94922 34.17969,-4.71875 46.57422,-15.96485c2.90625,-2.125 4.12109,-2.02343 4.13281,-2.01171c0.01562,0.00781 1.78125,0.75781 4.02734,6.70312l17.32032,46.21094c8.23437,21.92187 32.93359,36.36719 58.18359,36.36328c6.23438,0 12.50391,-0.87891 18.56641,-2.74609c14.28125,-4.39454 25.13672,-13.64844 31.39453,-26.76172c7,-14.66016 7.85547,-33.21094 2.53906,-55.13672zm-121.77734,-219.92188l16.80859,0c6.51172,0 11.93359,4.72266 13.05859,10.92969c-6.22265,-1.51172 -12.75781,-2.30859 -19.51171,-2.33203c-0.10547,0 -0.20704,0 -0.3086,0c-8.12109,0 -16.04687,1.11719 -23.24609,3.08594c0.80859,-6.57032 6.41406,-11.6836 13.19922,-11.6836zm-278.35157,0l16.77735,0c6.78906,0 12.39453,5.11328 13.19922,11.6875c-7.19532,-1.96875 -15.125,-3.08984 -23.2461,-3.08984c-0.08593,0 -0.17187,0 -0.25781,0c-6.76953,0.01953 -13.32031,0.81641 -19.55859,2.33203c1.1289,-6.20703 6.55859,-10.92969 13.08593,-10.92969zm361.78516,287.48828c-20.76172,6.39063 -50.10937,-2.7539 -58.29687,-24.55468l-17.32813,-46.22266c-3.36719,-8.91406 -7.91016,-14.08594 -13.88672,-15.82031c-5.47656,-1.59375 -11.39453,-0.03125 -17.58984,4.6289c-0.19531,0.14844 -0.38672,0.3086 -0.56641,0.47266c-19.29297,17.74219 -51.7539,16.23047 -72.35547,-3.37109c-1.39453,-1.32813 -3.24609,-2.06641 -5.16797,-2.06641l-58.05468,0c-1.92188,0 -3.77344,0.73828 -5.16797,2.06641c-20.61719,19.61328 -53.07422,21.1289 -72.35156,3.375c-0.1836,-0.16797 -0.375,-0.32813 -0.57422,-0.47657c-6.20313,-4.66797 -12.12891,-6.22265 -17.61719,-4.625c-5.98438,1.74219 -10.51953,6.92188 -13.86328,15.83203l-17.34766,46.20704c-8.17578,21.80078 -37.5039,30.94531 -58.26172,24.5625c-23.24609,-7.15235 -31.91406,-30.49219 -23.78125,-64.04297l36.11328,-149.07422c6.52344,-26.91797 21.00782,-39.86719 35.42579,-45.89063c0.60546,-0.16015 1.18359,-0.39062 1.71875,-0.6914c8.60156,-3.27344 17.0664,-4.1836 23.68359,-4.20313c11.19531,-0.01562 20.85156,2.38672 27.90234,5.46485c0.1211,0.05468 0.24219,0.11328 0.3711,0.16406c6.41015,2.85547 10.58593,6.25781 11.70703,8.85547l0,21.63672c0,16.73046 13.61328,30.34375 30.34375,30.34375l141.44531,0c16.71484,0 30.31641,-13.61329 30.31641,-30.34375l0,-21.63282c1.10937,-2.5664 5.19531,-5.92187 11.46093,-8.75781c0.36719,-0.13281 0.72266,-0.28125 1.0586,-0.46484c6.96484,-2.97266 16.36719,-5.26563 27.25781,-5.26563l0.26953,0c6.60938,0.02344 15.06641,0.9375 23.65625,4.21094c0.52735,0.29297 1.09766,0.51953 1.69531,0.67969c14.42188,6.01953 28.91407,18.96875 35.4375,45.89062l36.11329,149.07813c8.13671,33.54297 -0.52735,56.88281 -23.76563,64.03515zm0,0"/>
  <path id="svg_28" d="m331.79688,269.23828c-19.59375,0 -35.53125,15.9375 -35.53125,35.53125s15.9375,35.53125 35.53125,35.53125c19.58984,0 35.53125,-15.9414 35.53125,-35.53125c0,-19.59375 -15.94141,-35.53125 -35.53125,-35.53125zm0,56.07031c-11.32422,0 -20.53516,-9.21484 -20.53516,-20.53906s9.21094,-20.53515 20.53516,-20.53515s20.53515,9.21093 20.53515,20.53515s-9.21094,20.53906 -20.53515,20.53906zm0,0"/>
  <path id="svg_29" d="m134.25391,220.99219l-2.28125,0l0,-2.28125c0,-12.6836 -10.32032,-23.00391 -23.00391,-23.00391s-23.00391,10.32031 -23.00391,23.00391l0,2.28125l-2.28125,0c-12.68359,0 -23,10.32031 -23,23.0039s10.31641,23.00391 23,23.00391l2.28125,0l0,2.28125c0,12.68359 10.32032,23.00391 23.00391,23.00391s23.00391,-10.32032 23.00391,-23.00391l0,-2.28125l2.28125,0c12.68359,0 23.0039,-10.32031 23.0039,-23.00391s-10.32031,-23.0039 -23.0039,-23.0039zm0,31.01172l-9.77735,0c-4.14062,0 -7.5,3.35547 -7.5,7.49609l0,9.78125c0,4.41406 -3.58984,8.00781 -8.00781,8.00781c-4.41406,0 -8.00391,-3.59375 -8.00391,-8.00781l0,-9.78125c0,-4.14062 -3.35937,-7.49609 -7.5,-7.49609l-9.77734,0c-4.41406,0 -8.00781,-3.59375 -8.00781,-8.00782c0,-4.41406 3.59375,-8.00781 8.00781,-8.00781l9.77734,0c4.14063,0 7.5,-3.35937 7.5,-7.5l0,-9.77734c0,-4.41797 3.58985,-8.00781 8.00391,-8.00781c4.41797,0 8.00781,3.58984 8.00781,8.00781l0,9.77734c0,4.14063 3.35938,7.5 7.5,7.5l9.77735,0c4.41406,0 8.00781,3.59375 8.00781,8.00781c0,4.41407 -3.58984,8.00782 -8.00781,8.00782zm0,0"/>
  <path id="svg_30" d="m236.32813,248.74219l-10.88672,0c-4.14063,0 -7.4961,3.35937 -7.4961,7.5c0,4.14062 3.35547,7.49609 7.4961,7.49609l10.88672,0c4.14062,0 7.49609,-3.35547 7.49609,-7.49609c0,-4.14063 -3.35547,-7.5 -7.49609,-7.5zm0,0"/>
  <path id="svg_31" d="m286.55859,248.74219l-10.91406,0c-4.14062,0 -7.5,3.35937 -7.5,7.5c0,4.14062 3.35938,7.49609 7.5,7.49609l10.91406,0c4.14063,0 7.4961,-3.35547 7.4961,-7.49609c0,-4.14063 -3.35547,-7.5 -7.4961,-7.5zm0,0"/>
  <path id="svg_32" d="m264.33203,288.03125l-10.88281,0c-4.14063,0 -7.5,3.35547 -7.5,7.49609s3.35937,7.5 7.5,7.5l10.88281,0c4.14453,0 7.5,-3.35937 7.5,-7.5s-3.35547,-7.49609 -7.5,-7.49609zm0,0"/>
 </g>
</svg>