<svg id="Capa_1" enable-background="new 0 0 512.077 512.077" height="512" viewBox="0 0 512.077 512.077" width="512" xmlns="http://www.w3.org/2000/svg"><g id="XMLID_1_"><g id="XMLID_1834_"><path id="XMLID_1458_" d="m280.039 158.038h-48c-26.51 0-48 21.49-48 48h144c0-26.509-21.49-48-48-48z" fill="#66e0f7"/></g><g id="XMLID_1833_"><path id="XMLID_3_" d="m497.057 396.676-47.941-129.005c-13.769-37.051-49.128-61.632-88.655-61.632h-104.332-104.513c-39.527 0-74.885 24.581-88.655 61.632l-47.94 129.005c-18.971 51.05 18.787 105.363 73.248 105.363 27.098 0 52.262-14.039 66.495-37.099l13.939-22.582c7.796-12.63 21.579-20.32 36.421-20.32h51.005 50.825c14.842 0 28.625 7.689 36.421 20.32l13.938 22.582c14.233 23.059 39.397 37.099 66.495 37.099 54.462 0 92.22-54.314 73.249-105.363z" fill="#fff"/></g><g id="XMLID_1803_"><g id="XMLID_1799_"><circle id="XMLID_14_" cx="192.591" cy="422.039" fill="#d9bde9" r="32"/></g><g id="XMLID_1797_"><circle cx="319.488" cy="422.039" fill="#d9bde9" r="32"/></g></g><g id="XMLID_1408_"><g id="XMLID_1410_"><g id="XMLID_1412_"><ellipse id="XMLID_1457_" cx="380.886" cy="306.871" fill="#c193dc" rx="22" ry="22" transform="matrix(.16 -.987 .987 .16 16.966 633.684)"/></g><g id="XMLID_1411_"><circle id="XMLID_1455_" cx="292.886" cy="306.871" fill="#d5ea79" r="22"/></g></g><g id="XMLID_1409_"><path id="XMLID_251_" d="m185.193 286.871h-8v-8c0-11.046-8.954-20-20-20-11.046 0-20 8.954-20 20v8h-8c-11.046 0-20 8.954-20 20 0 11.046 8.954 20 20 20h8v8c0 11.046 8.954 20 20 20 11.046 0 20-8.954 20-20v-8h8c11.046 0 20-8.954 20-20 0-11.045-8.955-20-20-20z" fill="#ff7b79"/></g></g><g id="XMLID_1475_"><path id="XMLID_1480_" d="m506.43 393.192-8.293-22.314c-1.924-5.176-7.678-7.814-12.857-5.89-5.177 1.924-7.814 7.68-5.89 12.857l8.292 22.314c7.885 21.218 4.997 44.047-7.924 62.633s-33.314 29.246-55.951 29.246c-23.805 0-45.482-12.094-57.986-32.351l-10.126-16.405c3.674-6.237 5.791-13.496 5.791-21.244 0-23.159-18.841-42-42-42-19.713 0-36.288 13.655-40.787 32h-45.322c-4.499-18.345-21.075-32-40.787-32-23.159 0-42 18.841-42 42 0 7.747 2.117 15.006 5.79 21.243l-10.126 16.406c-12.504 20.257-34.181 32.351-57.986 32.351-22.636 0-43.029-10.66-55.95-29.246s-15.81-41.415-7.924-62.633l47.941-129.005c12.251-32.966 44.112-55.116 79.281-55.116h208.846c35.169 0 67.03 22.149 79.281 55.116l8.293 22.317c1.924 5.177 7.681 7.815 12.857 5.89 5.177-1.924 7.814-7.68 5.89-12.857l-8.293-22.317c-15.148-40.762-54.543-68.149-98.028-68.149h-23.303c-4.754-27.23-28.549-48-57.119-48h-14.001v-7.5c0-29.5-24-53.5-53.5-53.5h-105c-18.472 0-33.5-15.028-33.5-33.5s15.028-33.5 33.5-33.5h148.627c5.523 0 10-4.477 10-10s-4.477-10-10-10h-148.627c-29.5 0-53.5 24-53.5 53.5s24 53.5 53.5 53.5h105c18.472 0 33.5 15.028 33.5 33.5v7.5h-14c-28.57 0-52.365 20.77-57.119 48h-23.304c-43.485 0-82.88 27.387-98.028 68.149l-47.941 129.005c-10.2 27.446-6.464 56.975 10.25 81.017 16.713 24.041 43.092 37.83 72.373 37.83 30.792 0 58.831-15.644 75.004-41.846l7.557-12.242c6.35 3.863 13.8 6.089 21.761 6.089 19.713 0 36.288-13.655 40.787-32h45.321c4.499 18.345 21.075 32 40.787 32 7.96 0 15.409-2.226 21.759-6.088l7.556 12.241c16.174 26.203 44.213 41.846 75.005 41.846 29.28 0 55.659-13.789 72.372-37.83 16.715-24.042 20.451-53.571 10.251-81.017zm-274.391-225.154h48.001c17.494 0 32.264 11.882 36.664 28h-121.33c4.4-16.117 19.171-28 36.665-28zm-39.448 276.001c-12.131 0-22-9.869-22-22s9.869-22 22-22 22 9.869 22 22c0 12.13-9.869 22-22 22zm104.897-22c0-12.131 9.869-22 22-22s22 9.869 22 22-9.869 22-22 22-22-9.87-22-22z"/><path id="XMLID_1498_" d="m348.886 306.871c0 17.645 14.355 32 32 32s32-14.355 32-32-14.355-32-32-32-32 14.356-32 32zm44 0c0 6.617-5.383 12-12 12s-12-5.383-12-12 5.383-12 12-12 12 5.384 12 12z"/><path id="XMLID_1502_" d="m260.886 306.871c0 17.645 14.355 32 32 32s32-14.355 32-32-14.355-32-32-32-32 14.356-32 32zm44 0c0 6.617-5.383 12-12 12s-12-5.383-12-12 5.383-12 12-12 12 5.384 12 12z"/><path id="XMLID_1508_" d="m157.193 248.872c-15.891 0-28.936 12.42-29.938 28.062-15.642 1.003-28.062 14.047-28.062 29.938s12.42 28.936 28.062 29.938c1.003 15.642 14.047 28.062 29.938 28.062s28.936-12.42 29.938-28.062c15.642-1.002 28.062-14.047 28.062-29.938s-12.42-28.935-28.062-29.938c-1.003-15.643-14.048-28.062-29.938-28.062zm38 57.999c0 5.514-4.486 10-10 10h-8c-5.523 0-10 4.477-10 10v8c0 5.514-4.486 10-10 10s-10-4.486-10-10v-8c0-5.523-4.477-10-10-10h-8c-5.514 0-10-4.486-10-10s4.486-10 10-10h8c5.523 0 10-4.477 10-10v-8c0-5.514 4.486-10 10-10s10 4.486 10 10v8c0 5.523 4.477 10 10 10h8c5.514 0 10 4.486 10 10z"/><path id="XMLID_1522_" d="m463.088 332.168c0 2.64 1.07 5.21 2.93 7.08 1.86 1.86 4.43 2.93 7.07 2.93 2.63 0 5.21-1.07 7.07-2.93 1.86-1.87 2.93-4.44 2.93-7.08 0-2.63-1.07-5.21-2.93-7.07s-4.44-2.93-7.07-2.93c-2.64 0-5.21 1.07-7.07 2.93s-2.93 4.441-2.93 7.07z"/></g></g></svg>