<svg id="Capa_1" enable-background="new 0 0 512 512" height="512" viewBox="0 0 512 512" width="512" xmlns="http://www.w3.org/2000/svg"><g><g><path d="m372.388 161.017c0-24.477 12.767-46.015 31.98-58.349-34.218-48.317-90.56-79.858-154.272-79.858-43.35 0-83.281 14.611-115.161 39.164 3.008 7.756 4.677 16.175 4.677 24.981 0 38.215-31.091 69.306-69.306 69.306-.281 0-.557-.018-.836-.021-5.383 17.545-8.287 36.175-8.287 55.485 0 25.507 5.067 49.828 14.23 72.027 14.068-13.237 32.988-21.372 53.783-21.372 9.314 0 18.433 1.615 27.101 4.8l.167.062h187.266l.167-.062c8.668-3.185 17.786-4.8 27.101-4.8 20.795 0 39.715 8.136 53.783 21.372 6.92-16.763 11.499-34.738 13.329-53.519-36.557-1.873-65.722-32.202-65.722-69.216z" fill="#60b7ff"/><g fill="#26a6fe"><path d="m103.122 147.981c-9.774 5.277-20.95 8.279-32.816 8.279-.281 0-.557-.018-.836-.021-5.383 17.545-8.287 36.175-8.287 55.485 0 25.507 5.067 49.828 14.23 72.027 7.235-6.807 15.752-12.255 25.152-15.947-5.502-17.719-8.476-36.551-8.476-56.08-.001-22.371 3.894-43.829 11.033-63.743z"/><path d="m139.6 86.467c21.397-24.13 48.875-42.747 80.035-53.444 9.551-6.615 19.797-10.214 30.462-10.214-43.35 0-83.281 14.612-115.161 39.164 2.952 7.613 4.604 15.866 4.664 24.494z"/></g><path d="m339.694 267.24c2.673-17.554 4.116-36.195 4.116-55.516 0-104.334-41.957-188.914-93.713-188.914s-93.713 84.58-93.713 188.914c0 19.321 1.442 37.961 4.116 55.516z" fill="#6cf5c2"/><path d="m191.405 267.24c-2.674-17.554-4.116-36.194-4.116-55.516 0-93.722 33.858-171.49 78.261-186.343-5.028-1.682-10.188-2.571-15.453-2.571-51.756 0-93.713 84.58-93.713 188.914 0 19.321 1.442 37.961 4.116 55.516z" fill="#00f2a6"/><g fill="#0593fc"><path d="m387.385 203.997h-35.931c-.504-25.85-3.529-50.829-8.843-73.798h37.03c2.806-5.626 6.346-10.822 10.508-15.453h-51.549c-4.168-14.433-9.292-27.892-15.318-40.039-7.74-15.602-16.618-28.359-26.316-38.011 41.37 11.089 76.938 36.495 101.063 70.55 3.994-3.25 8.356-6.06 13.013-8.366-35.61-50.638-94.475-83.796-160.946-83.796-44.422 0-85.446 14.814-118.406 39.751 2.486 4.733 4.451 9.78 5.795 15.074 19.153-15.241 41.443-26.7 65.741-33.213-9.698 9.652-18.577 22.409-26.317 38.011-6.026 12.147-11.15 25.606-15.318 40.039h-27.815c-2.45 5.572-5.611 10.76-9.37 15.453h33.175c-5.314 22.969-8.339 47.948-8.843 73.798h-79.665c.705-16.73 3.699-32.875 8.663-48.141-2.442.261-4.919.404-7.429.404-2.95 0-5.85-.207-8.704-.566-5.29 17.765-8.146 36.569-8.146 56.03 0 27.726 5.78 54.124 16.179 78.069 3.599-4.184 7.622-7.991 12.016-11.341-7.312-18.39-11.703-38.248-12.578-59.002h79.666c.31 15.901 1.58 31.469 3.743 46.447 1.28.397 2.553.817 3.814 1.28l.167.062h11.832c-2.378-15.32-3.77-31.354-4.102-47.789h78.176v47.789h15.453v-47.789h78.176c-.332 16.435-1.724 32.469-4.102 47.789h11.832l.167-.062c1.261-.463 2.535-.883 3.814-1.28 2.163-14.978 3.433-30.546 3.743-46.447h53.044c-6.529-4.171-12.313-9.401-17.112-15.453zm-145.015 0h-78.176c.525-26.021 3.698-51.045 9.257-73.798h68.919zm0-89.251h-64.667c3.662-11.905 8.022-23.038 13.05-33.172 14.4-29.027 32.494-46.544 51.618-50.277v83.449zm15.453-83.448c19.123 3.733 37.217 21.25 51.617 50.277 5.027 10.134 9.388 21.267 13.05 33.172h-64.667zm0 172.699v-73.798h68.919c5.56 22.753 8.732 47.777 9.257 73.798z"/><path d="m441.694 230.323c-3.84 0-7.604-.328-11.276-.932-1.671 17.161-5.74 33.629-11.876 49.061 4.393 3.351 8.417 7.157 12.016 11.341 8.063-18.567 13.334-38.614 15.302-59.606-1.38.082-2.766.136-4.166.136z"/></g></g><g><circle cx="70.306" cy="86.954" fill="#fe646f" r="70.306"/></g><g><path d="m20.604 86.954c0-35.328 26.06-64.562 60.004-69.547-3.363-.494-6.801-.759-10.302-.759-38.829 0-70.306 31.477-70.306 70.306s31.477 70.306 70.306 70.306c3.501 0 6.939-.265 10.302-.759-33.944-4.985-60.004-34.219-60.004-69.547z" fill="#fd4755"/></g><g><path d="m207.765 340.947c0 12.203-2.804 23.759-7.792 34.07 12.717 1.938 22.492 12.947 22.492 26.197 0 1.816-.184 3.59-.534 5.304h56.33c-.35-1.714-.534-3.488-.534-5.304 0-13.25 9.775-24.26 22.492-26.197-4.987-10.311-7.792-21.867-7.792-34.07 0-34.845 22.808-64.448 54.273-74.707h-193.21c31.467 10.259 54.275 39.862 54.275 74.707z" fill="#838383"/><g><path d="m218.473 266.24 8.497 26.625c1.213 3.801 4.745 6.381 8.734 6.381h28.784c3.99 0 7.522-2.58 8.734-6.381l8.497-26.625z" fill="#fff"/></g><g><path d="m247.574 292.865-8.497-26.625h-20.604l8.497 26.625c1.213 3.801 4.745 6.381 8.734 6.381h20.604c-3.99 0-7.521-2.58-8.734-6.381z" fill="#eaf6ff"/></g><g><path d="m261.295 359.285h-22.397c-4.267 0-7.727-3.459-7.727-7.727s3.459-7.727 7.727-7.727h22.397c4.267 0 7.727 3.459 7.727 7.727s-3.46 7.727-7.727 7.727z" fill="#00f2a6"/></g><g><g><path d="m129.196 419.516c-43.323 0-78.569-35.246-78.569-78.569 0-.801.037-1.593.061-2.388l-1.061.103v113.457c0 24.742 20.057 44.799 44.799 44.799 17.279 0 33.018-9.938 40.448-25.538l28.403-59.647c-10.315 4.985-21.877 7.783-34.081 7.783z" fill="#9c9c9c"/><g><path d="m80.532 452.118v-48.24c-18.793-14.554-30.905-37.322-30.905-62.931v111.171c0 24.742 20.057 44.799 44.799 44.799 5.361 0 10.572-.96 15.434-2.745-17.118-6.3-29.328-22.751-29.328-42.054z" fill="#838383"/></g><path d="m169.465 401.213c0-14.612 11.888-26.5 26.5-26.5 1.731 0 3.422.172 5.061.49 4.957-10.376 7.738-21.991 7.738-34.257 0-43.945-35.624-79.569-79.569-79.569s-79.569 35.624-79.569 79.569 35.624 79.569 79.569 79.569c15.17 0 29.346-4.249 41.41-11.616-.738-2.434-1.14-5.014-1.14-7.686z" fill="#acacac"/><g><circle cx="129.196" cy="340.947" fill="#9c9c9c" r="51.075"/></g><g><path d="m98.724 340.946c0-24.679 17.504-45.27 40.773-50.035-3.327-.681-6.773-1.039-10.302-1.039-28.208 0-51.075 22.867-51.075 51.075s22.867 51.075 51.075 51.075c3.529 0 6.974-.358 10.302-1.039-23.269-4.767-40.773-25.357-40.773-50.037z" fill="#838383"/></g><g><circle cx="195.965" cy="401.213" fill="#0593fc" r="27.5"/></g><g><path d="m190.821 401.213c0-11.206 6.707-20.84 16.322-25.125-3.416-1.522-7.197-2.375-11.178-2.375-15.188 0-27.5 12.312-27.5 27.5s12.312 27.5 27.5 27.5c3.982 0 7.762-.853 11.178-2.375-9.615-4.285-16.322-13.919-16.322-25.125z" fill="#0182fc"/></g><path d="m150.856 333.22h-13.934v-13.934c0-4.268-3.459-7.727-7.727-7.727s-7.727 3.459-7.727 7.727v13.934h-13.934c-4.267 0-7.727 3.459-7.727 7.727s3.459 7.727 7.727 7.727h13.934v13.934c0 4.268 3.459 7.727 7.727 7.727s7.727-3.459 7.727-7.727v-13.934h13.934c4.267 0 7.727-3.459 7.727-7.727s-3.459-7.727-7.727-7.727z" fill="#5a5a5a"/></g><g><path d="m449.518 342.824c-1.004 42.457-35.828 76.692-78.521 76.692-12.204 0-23.766-2.798-34.081-7.784l28.403 59.647c7.429 15.601 23.168 25.538 40.447 25.538 24.742 0 44.799-20.057 44.799-44.799v-109.164z" fill="#9c9c9c"/><path d="m396.225 471.378-24.232-50.888c-.333.004-.661.025-.995.025-11.932 0-23.24-2.644-33.398-7.35l27.72 58.212c7.429 15.601 23.168 25.539 40.448 25.539 5.438 0 10.649-.97 15.472-2.745-10.812-3.969-19.891-12.032-25.015-22.793z" fill="#838383"/><path d="m370.997 261.378c-43.945 0-79.569 35.624-79.569 79.569 0 12.266 2.781 23.881 7.738 34.257 1.639-.318 3.33-.49 5.061-.49 14.612 0 26.5 11.888 26.5 26.5 0 2.672-.401 5.252-1.141 7.686 12.064 7.367 26.24 11.616 41.41 11.616 43.945 0 79.569-35.624 79.569-79.569s-35.623-79.569-79.568-79.569z" fill="#acacac"/><path d="m322.334 340.947c0-38.656 27.57-70.862 64.116-78.056-5-.984-10.164-1.513-15.453-1.513-43.945 0-79.569 35.624-79.569 79.569 0 12.266 2.781 23.881 7.738 34.257 1.639-.318 3.33-.49 5.061-.49 14.612 0 26.5 11.888 26.5 26.5 0 2.672-.401 5.252-1.141 7.686 12.064 7.367 26.24 11.616 41.41 11.616 5.289 0 10.453-.528 15.453-1.512-36.546-7.196-64.115-39.401-64.115-78.057z" fill="#9c9c9c"/><g><g><g><g><circle cx="331.507" cy="340.947" fill="#fed402" r="14.735"/></g></g><g><g><circle cx="410.487" cy="340.947" fill="#6cf5c2" r="14.735"/></g></g><g><g><circle cx="370.997" cy="301.457" fill="#fe646f" r="14.735"/></g></g><g><g><circle cx="370.997" cy="380.436" fill="#0593fc" r="14.735"/></g></g></g></g><g><circle cx="304.228" cy="401.213" fill="#0593fc" r="27.5"/></g><g><path d="m299.084 401.213c0-11.206 6.707-20.84 16.322-25.125-3.416-1.522-7.197-2.375-11.178-2.375-15.188 0-27.5 12.312-27.5 27.5s12.312 27.5 27.5 27.5c3.982 0 7.762-.853 11.178-2.375-9.615-4.285-16.322-13.919-16.322-25.125z" fill="#0182fc"/></g></g></g></g><g><g><path d="m70.306 82.161c-16.682 0-30.494 12.29-32.875 28.31-.386 2.598 1.653 4.927 4.279 4.927h57.19c2.626 0 4.665-2.33 4.279-4.927-2.379-16.02-16.191-28.31-32.873-28.31z" fill="#eaf6ff"/></g><g><path d="m58.035 110.471c1.867-12.566 10.77-22.835 22.573-26.679-3.244-1.057-6.705-1.631-10.302-1.631-16.682 0-30.494 12.29-32.874 28.31-.386 2.598 1.653 4.928 4.279 4.928h20.604c-2.627 0-4.666-2.33-4.28-4.928z" fill="#d8ecfe"/></g><g><circle cx="70.306" cy="66.31" fill="#fff" r="19.103"/></g><g><path d="m67.171 66.31c0-7.696 4.561-14.312 11.119-17.337-2.432-1.122-5.13-1.765-7.984-1.765-10.55 0-19.103 8.553-19.103 19.103s8.553 19.103 19.103 19.103c2.854 0 5.552-.643 7.984-1.765-6.558-3.027-11.119-9.643-11.119-17.339z" fill="#eaf6ff"/></g></g><g><g><circle cx="441.694" cy="161.017" fill="#eaf6ff" r="70.306"/></g><g><path d="m391.991 161.017c0-35.328 26.06-64.562 60.004-69.547-3.363-.494-6.801-.759-10.302-.759-38.829 0-70.306 31.477-70.306 70.306s31.477 70.306 70.306 70.306c3.501 0 6.939-.265 10.302-.759-33.943-4.985-60.004-34.219-60.004-69.547z" fill="#d8ecfe"/></g><g><g><path d="m441.694 156.224c-16.682 0-30.494 12.29-32.875 28.31-.386 2.598 1.653 4.927 4.279 4.927h57.19c2.626 0 4.665-2.33 4.279-4.927-2.379-16.02-16.191-28.31-32.873-28.31z" fill="#00f2a6"/></g><g><path d="m429.423 184.534c1.867-12.566 10.77-22.835 22.573-26.679-3.244-1.057-6.705-1.631-10.302-1.631-16.682 0-30.494 12.29-32.874 28.31-.386 2.598 1.653 4.928 4.279 4.928h20.604c-2.627 0-4.666-2.33-4.28-4.928z" fill="#00c285"/></g><g><circle cx="441.694" cy="140.373" fill="#6cf5c2" r="19.103"/></g><g><path d="m440.104 140.373c0-7.391 4.205-13.788 10.346-16.965-2.625-1.358-5.597-2.138-8.757-2.138-10.55 0-19.103 8.553-19.103 19.103s8.552 19.103 19.103 19.103c3.159 0 6.132-.78 8.757-2.137-6.141-3.177-10.346-9.575-10.346-16.966z" fill="#00f2a6"/></g></g></g></g></svg>